<svg width="10" height="8" viewBox="0 0 10 8" fill="none" xmlns="http://www.w3.org/2000/svg">
<path d="M9.45352 0.859672C9.39178 0.798541 9.31833 0.75002 9.2374 0.716908C9.15647 0.683796 9.06967 0.666748 8.982 0.666748C8.89433 0.666748 8.80753 0.683796 8.7266 0.716908C8.64567 0.75002 8.57222 0.798541 8.51048 0.859672L3.56285 5.72519L1.48417 3.67724C1.42007 3.61642 1.3444 3.56861 1.26149 3.53652C1.17857 3.50442 1.09003 3.48869 1.00092 3.4902C0.911804 3.49171 0.82387 3.51045 0.742132 3.54534C0.660394 3.58023 0.586454 3.63059 0.524533 3.69354C0.462612 3.75649 0.413923 3.83081 0.381246 3.91224C0.34857 3.99367 0.332544 4.08063 0.334086 4.16814C0.335628 4.25566 0.354706 4.34202 0.390232 4.42229C0.425757 4.50256 0.477035 4.57518 0.541136 4.63599L3.09133 7.14049C3.15306 7.20162 3.22652 7.25014 3.30744 7.28326C3.38837 7.31637 3.47518 7.33341 3.56285 7.33341C3.65052 7.33341 3.73732 7.31637 3.81825 7.28326C3.89918 7.25014 3.97263 7.20162 4.03437 7.14049L9.45352 1.81843C9.52093 1.75735 9.57473 1.68323 9.61152 1.60072C9.64832 1.51822 9.66732 1.42912 9.66732 1.33905C9.66732 1.24898 9.64832 1.15988 9.61152 1.07738C9.57473 0.994872 9.52093 0.920747 9.45352 0.859672Z" fill="#4963FA"/>
</svg>
