<svg width="14" height="14" viewBox="0 0 14 14" fill="none" xmlns="http://www.w3.org/2000/svg">
<path fill-rule="evenodd" clip-rule="evenodd" d="M0.333984 6.11393C0.333984 2.92176 2.89421 0.333984 6.05241 0.333984C7.56903 0.333984 9.02354 0.942942 10.0959 2.02689C11.1684 3.11084 11.7708 4.581 11.7708 6.11393C11.7708 9.30611 9.21061 11.8939 6.05241 11.8939C2.89421 11.8939 0.333984 9.30611 0.333984 6.11393ZM11.6762 10.7702L13.3793 12.1449H13.4089C13.7535 12.4932 13.7535 13.0578 13.4089 13.4061C13.0643 13.7544 12.5057 13.7544 12.1611 13.4061L10.7478 11.7863C10.6142 11.6517 10.5391 11.4689 10.5391 11.2782C10.5391 11.0876 10.6142 10.9048 10.7478 10.7702C11.0055 10.5142 11.4185 10.5142 11.6762 10.7702Z" fill="#68687B"/>
</svg>
