<svg width="12" height="10" viewBox="0 0 12 10" fill="none" xmlns="http://www.w3.org/2000/svg">
<path d="M11.5654 1.07514C11.4883 0.998725 11.3964 0.938074 11.2953 0.896684C11.1941 0.855294 11.0856 0.833984 10.976 0.833984C10.8664 0.833984 10.7579 0.855294 10.6568 0.896684C10.5556 0.938074 10.4638 0.998725 10.3866 1.07514L4.20209 7.15703L1.60375 4.59709C1.52363 4.52108 1.42904 4.46131 1.32539 4.4212C1.22175 4.38108 1.11107 4.36141 0.999679 4.3633C0.888291 4.36519 0.778372 4.38861 0.6762 4.43223C0.574028 4.47584 0.481602 4.53879 0.404201 4.61748C0.3268 4.69617 0.265939 4.78906 0.225093 4.89085C0.184247 4.99264 0.164215 5.10133 0.166143 5.21073C0.16807 5.32012 0.191918 5.42807 0.236325 5.52841C0.280732 5.62875 0.344828 5.71952 0.424955 5.79554L3.61269 8.92616C3.68986 9.00258 3.78168 9.06323 3.88284 9.10462C3.984 9.14601 4.0925 9.16732 4.20209 9.16732C4.31168 9.16732 4.42018 9.14601 4.52134 9.10462C4.6225 9.06323 4.71432 9.00258 4.79149 8.92616L11.5654 2.27358C11.6497 2.19724 11.7169 2.10458 11.7629 2.00145C11.8089 1.89832 11.8327 1.78695 11.8327 1.67436C11.8327 1.56177 11.8089 1.4504 11.7629 1.34727C11.7169 1.24414 11.6497 1.15148 11.5654 1.07514V1.07514Z" fill="#68687B"/>
</svg>
