<svg width="9" height="14" viewBox="0 0 9 14" fill="none" xmlns="http://www.w3.org/2000/svg">
<path d="M4.06 13.4C3.95733 13.4 3.878 13.3673 3.822 13.302C3.766 13.246 3.738 13.1713 3.738 13.078V12.098C3.05667 12.042 2.48267 11.888 2.016 11.636C1.54933 11.3747 1.19467 11.062 0.952 10.698C0.709333 10.334 0.578667 9.94667 0.56 9.536C0.56 9.46133 0.588 9.396 0.644 9.34C0.709333 9.27467 0.784 9.242 0.868 9.242H1.582C1.694 9.242 1.778 9.27 1.834 9.326C1.89 9.382 1.92733 9.44733 1.946 9.522C2.002 9.746 2.11867 9.97 2.296 10.194C2.47333 10.4087 2.72533 10.5907 3.052 10.74C3.388 10.88 3.81733 10.95 4.34 10.95C5.14267 10.95 5.73067 10.81 6.104 10.53C6.48667 10.2407 6.678 9.858 6.678 9.382C6.678 9.05533 6.57533 8.794 6.37 8.598C6.174 8.39267 5.87067 8.21067 5.46 8.052C5.04933 7.89333 4.51733 7.72067 3.864 7.534C3.18267 7.338 2.618 7.12333 2.17 6.89C1.722 6.65667 1.386 6.36733 1.162 6.022C0.947333 5.67667 0.84 5.238 0.84 4.706C0.84 4.02467 1.092 3.44133 1.596 2.956C2.1 2.46133 2.814 2.172 3.738 2.088V1.122C3.738 1.02867 3.766 0.953999 3.822 0.897999C3.878 0.832666 3.95733 0.8 4.06 0.8H4.592C4.68533 0.8 4.76 0.832666 4.816 0.897999C4.88133 0.953999 4.914 1.02867 4.914 1.122V2.102C5.53933 2.17667 6.062 2.34933 6.482 2.62C6.902 2.89067 7.21933 3.20333 7.434 3.558C7.64867 3.91267 7.76067 4.258 7.77 4.594C7.77 4.65933 7.74667 4.72467 7.7 4.79C7.65333 4.846 7.57867 4.874 7.476 4.874H6.734C6.66867 4.874 6.59867 4.85533 6.524 4.818C6.45867 4.78067 6.40733 4.71067 6.37 4.608C6.314 4.22533 6.09933 3.90333 5.726 3.642C5.35267 3.38067 4.86733 3.25 4.27 3.25C3.66333 3.25 3.16867 3.36667 2.786 3.6C2.41267 3.83333 2.226 4.19733 2.226 4.692C2.226 5.00933 2.31467 5.27533 2.492 5.49C2.66933 5.69533 2.94933 5.87733 3.332 6.036C3.71467 6.19467 4.214 6.36267 4.83 6.54C5.57667 6.74533 6.188 6.96467 6.664 7.198C7.14 7.422 7.49 7.70667 7.714 8.052C7.94733 8.388 8.064 8.822 8.064 9.354C8.064 9.886 7.93333 10.348 7.672 10.74C7.42 11.132 7.056 11.4447 6.58 11.678C6.11333 11.9113 5.558 12.056 4.914 12.112V13.078C4.914 13.1713 4.88133 13.246 4.816 13.302C4.76 13.3673 4.68533 13.4 4.592 13.4H4.06Z" fill="#68687B"/>
</svg>
