<svg width="12" height="14" viewBox="0 0 12 14" fill="none" xmlns="http://www.w3.org/2000/svg">
<path fill-rule="evenodd" clip-rule="evenodd" d="M9.68246 3.93132V4.95355C10.8307 5.31196 11.6673 6.35141 11.6673 7.59292V10.8842C11.6673 12.4212 10.3931 13.6673 8.82213 13.6673H3.17985C1.60822 13.6673 0.333984 12.4212 0.333984 10.8842V7.59292C0.333984 6.35141 1.17128 5.31196 2.31884 4.95355V3.93132C2.32562 1.94384 3.97176 0.333984 5.99049 0.333984C8.03632 0.333984 9.68246 1.94384 9.68246 3.93132ZM6.00404 1.49335C7.37921 1.49335 8.49697 2.58646 8.49697 3.93132V4.80979H3.50434V3.91807C3.51111 2.57984 4.62886 1.49335 6.00404 1.49335ZM6.5934 9.97061C6.5934 10.2952 6.3292 10.5536 5.99726 10.5536C5.6721 10.5536 5.4079 10.2952 5.4079 9.97061V8.49987C5.4079 8.18188 5.6721 7.9235 5.99726 7.9235C6.3292 7.9235 6.5934 8.18188 6.5934 8.49987V9.97061Z" fill="#68687B"/>
</svg>
