<svg width="18" height="17" viewBox="0 0 18 17" fill="none" xmlns="http://www.w3.org/2000/svg">
<path fill-rule="evenodd" clip-rule="evenodd" d="M13.4451 0C14.652 0 15.813 0.477 16.6671 1.3329C17.5221 2.187 18 3.339 18 4.545V11.655C18 14.166 15.957 16.2 13.4451 16.2H4.554C2.0421 16.2 0 14.166 0 11.655V4.545C0 2.034 2.0331 0 4.554 0H13.4451ZM14.877 5.88598L14.949 5.81398C15.1641 5.55298 15.1641 5.17498 14.9391 4.91398C14.814 4.77988 14.6421 4.69798 14.463 4.67998C14.274 4.67008 14.094 4.73398 13.9581 4.85998L9.89999 8.09998C9.37799 8.53288 8.63009 8.53288 8.09999 8.09998L4.04999 4.85998C3.77009 4.65298 3.38309 4.67998 3.14999 4.92298C2.90699 5.16598 2.87999 5.55298 3.08609 5.82298L3.20399 5.93998L7.29899 9.13498C7.80299 9.53098 8.41409 9.74698 9.05399 9.74698C9.69209 9.74698 10.314 9.53098 10.8171 9.13498L14.877 5.88598Z" fill="#68687B"/>
</svg>
