<svg width="18" height="16" viewBox="0 0 18 16" fill="none" xmlns="http://www.w3.org/2000/svg">
<path fill-rule="evenodd" clip-rule="evenodd" d="M7.16874 10.7098C7.68914 11.0626 8.32337 11.2759 8.99825 11.2759C10.7871 11.2759 12.2426 9.80736 12.2426 8.00243C12.2426 7.32147 12.0312 6.68154 11.6815 6.15647L10.7952 7.05073C10.9416 7.32968 11.0229 7.65785 11.0229 8.00243C11.0229 9.12641 10.1122 10.0453 8.99825 10.0453C8.65674 10.0453 8.3315 9.96324 8.05504 9.81556L7.16874 10.7098ZM14.3567 3.45728C15.5357 4.54024 16.5358 6.00059 17.2839 7.7563C17.3489 7.91218 17.3489 8.09267 17.2839 8.24035C15.5438 12.3261 12.4459 14.7709 8.99825 14.7709H8.99012C7.42081 14.7709 5.91654 14.2541 4.59117 13.3106L3.01372 14.9022C2.89176 15.0253 2.73726 15.0827 2.58277 15.0827C2.42828 15.0827 2.26566 15.0253 2.15182 14.9022C1.94854 14.6971 1.91602 14.3689 2.07864 14.131L2.10303 14.0982L14.129 1.96411C14.1453 1.9477 14.1615 1.93129 14.1697 1.91488L14.1697 1.91488C14.1859 1.89847 14.2022 1.88206 14.2103 1.86566L14.9746 1.09446C15.2186 0.856535 15.6007 0.856535 15.8366 1.09446C16.0805 1.33238 16.0805 1.72618 15.8366 1.96411L14.3567 3.45728ZM5.74799 8.00563C5.74799 8.21894 5.77238 8.43225 5.8049 8.62915L2.79638 11.6647C1.98326 10.713 1.27585 9.56443 0.714803 8.24355C0.649753 8.09587 0.649753 7.91538 0.714803 7.7595C2.45487 3.67379 5.55284 1.23713 8.99232 1.23713H9.00045C10.1632 1.23713 11.2934 1.51607 12.3342 2.04114L9.61841 4.78136C9.42327 4.74854 9.21186 4.72393 9.00045 4.72393C7.20346 4.72393 5.74799 6.19249 5.74799 8.00563Z" fill="#68687B"/>
</svg>
