<svg width="14" height="12" viewBox="0 0 14 12" fill="none" xmlns="http://www.w3.org/2000/svg">
<path fill-rule="evenodd" clip-rule="evenodd" d="M13.5255 5.02538C13.4352 5.11307 13.3127 5.16318 13.1838 5.16318C12.7066 5.16318 12.3198 5.53898 12.3198 5.99622C12.3198 6.45658 12.7021 6.83051 13.1747 6.83552C13.441 6.83803 13.6673 7.01841 13.6673 7.27709V8.88367C13.6673 10.236 12.539 11.3327 11.1464 11.3327H9.04449C8.82722 11.3327 8.6512 11.1617 8.6512 10.9506V9.5977C8.6512 9.33464 8.43843 9.12794 8.16764 9.12794C7.90329 9.12794 7.68408 9.33464 7.68408 9.5977V10.9506C7.68408 11.1617 7.50807 11.3327 7.29143 11.3327H2.85494C1.46874 11.3327 0.333984 10.2366 0.333984 8.88367V7.27709C0.333984 7.01841 0.56029 6.83803 0.82657 6.83552C1.29981 6.83051 1.6815 6.45658 1.6815 5.99622C1.6815 5.55151 1.30755 5.21328 0.817543 5.21328C0.688594 5.21328 0.566093 5.16318 0.475828 5.07549C0.385564 4.9878 0.333984 4.86879 0.333984 4.74353V3.12129C0.333984 1.77089 1.47132 0.666016 2.86139 0.666016H7.29143C7.50807 0.666016 7.68408 0.837008 7.68408 1.04809V2.65153C7.68408 2.90833 7.90329 3.12129 8.16764 3.12129C8.43843 3.12129 8.6512 2.90833 8.6512 2.65153V1.04809C8.6512 0.837008 8.82722 0.666016 9.04449 0.666016H11.1464C12.539 0.666016 13.6673 1.76212 13.6673 3.11503V4.69342C13.6673 4.81869 13.6157 4.93769 13.5255 5.02538ZM8.16764 7.91283C8.43843 7.91283 8.6512 7.69988 8.6512 7.44308V4.93769C8.6512 4.68089 8.43843 4.46793 8.16764 4.46793C7.9033 4.46793 7.68408 4.68089 7.68408 4.93769V7.44308C7.68408 7.69988 7.9033 7.91283 8.16764 7.91283Z" fill="#68687B"/>
</svg>
