<svg width="26" height="26" viewBox="0 0 26 26" fill="none" xmlns="http://www.w3.org/2000/svg">
<path fill-rule="evenodd" clip-rule="evenodd" d="M7.58762 0.5H18.4251C22.6626 0.5 25.5001 3.475 25.5001 7.9V18.1138C25.5001 22.525 22.6626 25.5 18.4251 25.5H7.58762C3.35012 25.5 0.500122 22.525 0.500122 18.1138V7.9C0.500122 3.475 3.35012 0.5 7.58762 0.5ZM12.2876 16.7375L18.2251 10.8C18.6501 10.375 18.6501 9.6875 18.2251 9.25C17.8001 8.825 17.1001 8.825 16.6751 9.25L11.5126 14.4125L9.32512 12.225C8.90012 11.8 8.20012 11.8 7.77512 12.225C7.35012 12.65 7.35012 13.3375 7.77512 13.775L10.7501 16.7375C10.9626 16.95 11.2376 17.05 11.5126 17.05C11.8001 17.05 12.0751 16.95 12.2876 16.7375Z" fill="#38AF1A"/>
</svg>
