<svg width="26" height="26" viewBox="0 0 26 26" fill="none" xmlns="http://www.w3.org/2000/svg">
<path fill-rule="evenodd" clip-rule="evenodd" d="M7.58701 0.498047H18.4245C22.662 0.498047 25.4995 3.47305 25.4995 7.89805V18.1118C25.4995 22.5243 22.662 25.498 18.4245 25.498H7.58701C3.34951 25.498 0.499512 22.5243 0.499512 18.1118V7.89805C0.499512 3.47305 3.34951 0.498047 7.58701 0.498047ZM16.762 16.748C17.187 16.3243 17.187 15.6368 16.762 15.2118L14.537 12.9868L16.762 10.7605C17.187 10.3368 17.187 9.6368 16.762 9.2118C16.337 8.78555 15.6495 8.78555 15.212 9.2118L12.9995 11.4355L10.7745 9.2118C10.337 8.78555 9.64951 8.78555 9.22451 9.2118C8.79951 9.6368 8.79951 10.3368 9.22451 10.7605L11.4495 12.9868L9.22451 15.1993C8.79951 15.6368 8.79951 16.3243 9.22451 16.748C9.43701 16.9605 9.72451 17.0743 9.99951 17.0743C10.287 17.0743 10.562 16.9605 10.7745 16.748L12.9995 14.5368L15.2245 16.748C15.437 16.9743 15.712 17.0743 15.987 17.0743C16.2745 17.0743 16.5495 16.9605 16.762 16.748Z" fill="#B02F2F"/>
</svg>
