<svg width="18" height="18" viewBox="0 0 18 18" fill="none" xmlns="http://www.w3.org/2000/svg">
<path fill-rule="evenodd" clip-rule="evenodd" d="M10.7671 8.36028H13.0736C13.4234 8.36028 13.6981 8.07114 13.6981 7.72246C13.6981 7.36529 13.4234 7.08465 13.0736 7.08465H10.7671C10.4174 7.08465 10.1426 7.36529 10.1426 7.72246C10.1426 8.07114 10.4174 8.36028 10.7671 8.36028ZM15.8132 3.93893C16.3211 3.93893 16.6542 4.11752 16.9872 4.50871C17.3203 4.89991 17.3786 5.46119 17.3037 5.97059L16.5126 11.5494C16.3627 12.6218 15.4634 13.4118 14.4059 13.4118H5.32134C4.21387 13.4118 3.29792 12.5452 3.20632 11.4227L2.44025 2.15219L1.1829 1.93107C0.849824 1.87155 0.616673 1.53988 0.67496 1.19971C0.733248 0.851887 1.058 0.621422 1.3994 0.673298L3.38535 0.9786C3.66846 1.03048 3.87663 1.26774 3.90161 1.55689L4.05982 3.46184C4.0848 3.73482 4.3013 3.93893 4.56776 3.93893H15.8132ZM5.18794 14.7559C4.48849 14.7559 3.92226 15.3342 3.92226 16.0485C3.92226 16.7544 4.48849 17.3327 5.18794 17.3327C5.87907 17.3327 6.4453 16.7544 6.4453 16.0485C6.4453 15.3342 5.87907 14.7559 5.18794 14.7559ZM14.5556 14.7559C13.8562 14.7559 13.29 15.3342 13.29 16.0485C13.29 16.7544 13.8562 17.3327 14.5556 17.3327C15.2468 17.3327 15.813 16.7544 15.813 16.0485C15.813 15.3342 15.2468 14.7559 14.5556 14.7559Z" fill="white"/>
</svg>
