<svg width="10" height="8" viewBox="0 0 10 8" fill="none" xmlns="http://www.w3.org/2000/svg">
<path d="M9.45352 0.858939C9.39178 0.797808 9.31833 0.749287 9.2374 0.716175C9.15647 0.683063 9.06967 0.666016 8.982 0.666016C8.89433 0.666016 8.80753 0.683063 8.7266 0.716175C8.64567 0.749287 8.57222 0.797808 8.51048 0.858939L3.56285 5.72445L1.48417 3.6765C1.42007 3.61569 1.3444 3.56788 1.26149 3.53578C1.17857 3.50369 1.09003 3.48795 1.00092 3.48947C0.911804 3.49098 0.82387 3.50972 0.742132 3.54461C0.660394 3.5795 0.586454 3.62986 0.524533 3.69281C0.462612 3.75576 0.413923 3.83008 0.381246 3.91151C0.34857 3.99294 0.332544 4.0799 0.334086 4.16741C0.335628 4.25492 0.354706 4.34128 0.390232 4.42156C0.425757 4.50183 0.477035 4.57445 0.541136 4.63526L3.09133 7.13976C3.15306 7.20089 3.22652 7.24941 3.30744 7.28252C3.38837 7.31563 3.47518 7.33268 3.56285 7.33268C3.65052 7.33268 3.73732 7.31563 3.81825 7.28252C3.89918 7.24941 3.97263 7.20089 4.03437 7.13976L9.45352 1.81769C9.52093 1.75662 9.57473 1.68249 9.61152 1.59999C9.64832 1.51748 9.66732 1.42839 9.66732 1.33832C9.66732 1.24824 9.64832 1.15915 9.61152 1.07664C9.57473 0.994139 9.52093 0.920014 9.45352 0.858939Z" fill="white"/>
</svg>
