<svg width="16" height="18" viewBox="0 0 16 18" fill="none" xmlns="http://www.w3.org/2000/svg">
<path fill-rule="evenodd" clip-rule="evenodd" d="M14.9059 3.36898C15.2301 3.36898 15.5 3.63814 15.5 3.98064V4.2973C15.5 4.63146 15.2301 4.90896 14.9059 4.90896H1.09488C0.769883 4.90896 0.5 4.63146 0.5 4.2973V3.98064C0.5 3.63814 0.769883 3.36898 1.09488 3.36898H3.52464C4.01821 3.36898 4.44775 3.01815 4.55879 2.52315L4.68603 1.95482C4.88378 1.18067 5.53458 0.666504 6.27939 0.666504H9.72061C10.4573 0.666504 11.1154 1.18067 11.3059 1.91399L11.442 2.52232C11.5522 3.01815 11.9818 3.36898 12.4762 3.36898H14.9059ZM13.6715 14.9449C13.9252 12.5807 14.3693 6.96411 14.3693 6.90744C14.3855 6.73578 14.3296 6.57328 14.2186 6.44245C14.0994 6.31995 13.9487 6.24745 13.7826 6.24745H2.22377C2.05681 6.24745 1.89796 6.31995 1.78774 6.44245C1.6759 6.57328 1.62079 6.73578 1.62889 6.90744C1.63038 6.91785 1.64632 7.1157 1.67296 7.44646C1.79132 8.91582 2.12097 13.0083 2.33399 14.9449C2.48474 16.3715 3.42082 17.2682 4.77672 17.3007C5.82302 17.3248 6.90094 17.3332 8.00316 17.3332C9.04136 17.3332 10.0958 17.3248 11.1745 17.3007C12.5774 17.2765 13.5127 16.3957 13.6715 14.9449Z" fill="white"/>
</svg>
