<svg width="18" height="16" viewBox="0 0 18 16" fill="none" xmlns="http://www.w3.org/2000/svg">
<path fill-rule="evenodd" clip-rule="evenodd" d="M6.39747 3.31547C6.39747 4.87102 5.11507 6.13184 3.53174 6.13184C1.94934 6.13184 0.666016 4.87102 0.666016 3.31547C0.666016 1.76082 1.94934 0.5 3.53174 0.5C5.11507 0.5 6.39747 1.76082 6.39747 3.31547ZM16.0771 2.08194C16.7697 2.08194 17.3327 2.63502 17.3327 3.31547C17.3327 3.99682 16.7697 4.54991 16.0771 4.54991H10.5975C9.90402 4.54991 9.34106 3.99682 9.34106 3.31547C9.34106 2.63502 9.90402 2.08194 10.5975 2.08194H16.0771ZM1.92249 11.2983H7.40209C8.0956 11.2983 8.65856 11.8514 8.65856 12.5327C8.65856 13.2132 8.0956 13.7672 7.40209 13.7672H1.92249C1.22898 13.7672 0.666016 13.2132 0.666016 12.5327C0.666016 11.8514 1.22898 11.2983 1.92249 11.2983ZM14.467 15.3148C16.0503 15.3148 17.3327 14.054 17.3327 12.4993C17.3327 10.9438 16.0503 9.68297 14.467 9.68297C12.8846 9.68297 11.6012 10.9438 11.6012 12.4993C11.6012 14.054 12.8846 15.3148 14.467 15.3148Z" fill="white"/>
</svg>
