<svg width="30" height="31" viewBox="0 0 30 31" fill="none" xmlns="http://www.w3.org/2000/svg">
<path d="M15.4707 31C12.6603 31 10.0682 30.3369 7.69441 29.0107C5.34788 27.6569 3.47885 25.8057 2.08731 23.4572C0.695771 21.0811 0 18.4287 0 15.5C0 12.5713 0.695771 9.93271 2.08731 7.58422C3.47885 5.20811 5.34788 3.35695 7.69441 2.03075C10.0682 0.676916 12.6603 0 15.4707 0C17.7626 0 19.8499 0.414439 21.7326 1.24332C23.6426 2.04456 25.2797 3.19118 26.6439 4.68316L22.8377 8.45455C21.8554 7.40463 20.764 6.6172 19.5634 6.09225C18.3902 5.56729 17.0123 5.30481 15.4297 5.30481C13.6289 5.30481 11.9782 5.73307 10.4775 6.58957C8.97681 7.41845 7.77626 8.62032 6.87585 10.1952C6.00273 11.7424 5.56617 13.5107 5.56617 15.5C5.56617 17.4893 6.01637 19.2714 6.91678 20.8463C7.81719 22.3935 9.01774 23.5954 10.5184 24.4519C12.0464 25.2807 13.7108 25.6952 15.5116 25.6952C18.2401 25.6952 20.4775 24.8801 22.2237 23.25C22.7694 22.7527 23.2469 22.1172 23.6562 21.3436C24.0655 20.57 24.3656 19.7273 24.5566 18.8155H15.3479V14.0495H29.7135C29.9045 14.8231 30 15.6934 30 16.6604C30 18.6221 29.6999 20.4456 29.0996 22.131C28.5266 23.8164 27.6398 25.2946 26.4393 26.5655C25.1296 28.0022 23.5471 29.1074 21.6917 29.881C19.8363 30.627 17.7626 31 15.4707 31Z" fill="white"/>
</svg>
